# xmcd
#
# Track frame offsets: 
#        150
#        12364
#        21297
#        31542
#        43198
#        55143
#        67441
#        87336
#        101201
#        110795
#        122539
#        136331
#        149997
#        163022
#        176823
#        185730
#        194344
#        204438
#        216495
#        228210
#        240607
#        252100
#        263351
#        274306
#        282667
#        295030
#        305400
#        319028
#
# Disc length: 4406 seconds
#
# Revision: 2
# Processed by: cddbd v1.5.2PL0 Copyright (c) Steve Scherf et al.
# Submitted via: ExactAudioCopyFreeDBPlugin 1.0
#
DISCID=b611341c
DTITLE=Various Artist - Mod:  The Early Years [Real Gone Music]
DYEAR=2014
DGENRE=Rhythm and Blues
TTITLE0=Bobby Parker - Watch Your Step
TTITLE1=James Ray - If You Gotta Make a Fool of Somebody
TTITLE2=Barbie Gaye - My Boy Lollipop
TTITLE3=Bobby Freeman - (Do The) Shimmy Gully
TTITLE4=Little Papa Joe - Looking for My Baby
TTITLE5=Ernie K. Doe - A Certain Girl
TTITLE6=The Isley Brothers - Shout, Parts 1 and 2
TTITLE7=Bill Doggett - Honk Tonk, Part 2
TTITLE8=The Jarmels - Keep Your Mind on Me
TTITLE9=Freddy King - Hide Away
TTITLE10=Marvin Gaye - Let Your Conscience Be Your Guide
TTITLE11=Sugar Pie DeSanto - I Want to Know
TTITLE12=The Contours - Whole Lotta Women
TTITLE13=Etta James - I Just Want to Make Love to You
TTITLE14=Maximillian - The Snake
TTITLE15=Ann Cole - As Plain as the Nose on Your Face
TTITLE16=The Majestics - Oasis, Part 1
TTITLE17=The Coasters - Poison Ivy
TTITLE18=Sam Cooke - Cupid
TTITLE19=Arthur Alexander - You Better Move On
TTITLE20=The Miracles - Ain't it Baby
TTITLE21=The Marvelettes - Please Mr. Postman
TTITLE22=The Chantels - Well I Told You
TTITLE23=Dee Clark - Hey Little Girl
TTITLE24=James Brown - I Don't Mind
TTITLE25=Ike Turner's Kings of Rhythm - She Made My Blood Run Cold
TTITLE26=B.B. King - You Upset Me Baby
TTITLE27=Chuck Willis - C.C. Rider
EXTD=
EXTT0=
EXTT1=
EXTT2=
EXTT3=
EXTT4=
EXTT5=
EXTT6=
EXTT7=
EXTT8=
EXTT9=
EXTT10=
EXTT11=
EXTT12=
EXTT13=
EXTT14=
EXTT15=
EXTT16=
EXTT17=
EXTT18=
EXTT19=
EXTT20=
EXTT21=
EXTT22=
EXTT23=
EXTT24=
EXTT25=
EXTT26=
EXTT27=
PLAYORDER=
